<?xml version="1.0" encoding="UTF-8" standalone="no"?>
<!-- Created with Inkscape (http://www.inkscape.org/) -->

<svg
   width="40.853699"
   height="39.832005"
   viewBox="0 0 10.809207 10.538884"
   version="1.1"
   id="svg1849"
   inkscape:version="1.1.2 (0a00cf5339, 2022-02-04)"
   sodipodi:docname="logo-smol.svg"
   xmlns:inkscape="http://www.inkscape.org/namespaces/inkscape"
   xmlns:sodipodi="http://sodipodi.sourceforge.net/DTD/sodipodi-0.dtd"
   xmlns="http://www.w3.org/2000/svg"
   xmlns:svg="http://www.w3.org/2000/svg">
  <sodipodi:namedview
     id="namedview1851"
     pagecolor="#ffffff"
     bordercolor="#999999"
     borderopacity="1"
     inkscape:pageshadow="0"
     inkscape:pageopacity="0"
     inkscape:pagecheckerboard="0"
     inkscape:document-units="mm"
     showgrid="false"
     fit-margin-top="0"
     fit-margin-left="0"
     fit-margin-right="0"
     fit-margin-bottom="0"
     units="px"
     width="40px"
     inkscape:zoom="11.95881"
     inkscape:cx="12.668484"
     inkscape:cy="26.340413"
     inkscape:window-width="1920"
     inkscape:window-height="1011"
     inkscape:window-x="0"
     inkscape:window-y="32"
     inkscape:window-maximized="1"
     inkscape:current-layer="layer1" />
  <defs
     id="defs1846" />
  <g
     inkscape:label="Layer 1"
     inkscape:groupmode="layer"
     id="layer1"
     transform="translate(-1.6218769,-21.786034)">
    <path
       d="m 1.6218842,26.874617 c 0.00435,-0.05475 0.00927,-0.109777 0.012745,-0.16452 0.044027,-0.680092 0.2137596,-1.327164 0.5094894,-1.941216 0.1384513,-0.28762 0.302102,-0.559888 0.4906624,-0.817384 0.00666,-0.0093 0.013903,-0.01825 0.020565,-0.02723 0.062854,0.04837 0.1248377,0.09587 0.1894293,0.145693 -0.5859563,0.892402 -0.8819757,1.878072 -0.8863204,2.947449 -0.00463,1.069957 0.2826957,2.058523 0.8631485,2.959616 -0.036496,0.02519 -0.072701,0.04808 -0.1065901,0.07415 -0.03302,0.0252 -0.063433,0.05388 -0.097901,0.08342 -0.00666,-0.009 -0.014193,-0.01825 -0.021145,-0.02809 C 2.173662,29.511569 1.8866217,28.857256 1.7354258,28.143565 1.6740206,27.853048 1.637525,27.559346 1.627677,27.262458 c -2.901e-4,-0.0087 -0.00376,-0.01738 -0.00551,-0.02578 -2.901e-4,-0.121072 -2.901e-4,-0.241565 -2.901e-4,-0.362058 z"
       id="path122"
       style="stroke-width:0.0289648" />
    <path
       d="m 6.7660186,32.324618 c -0.022593,-0.0023 -0.045185,-0.0058 -0.067778,-0.0066 C 6.106492,32.297423 5.5347282,32.180115 4.9826607,31.966066 4.575996,31.808498 4.1953995,31.602559 3.8400024,31.349986 c -0.0084,-0.0058 -0.01622,-0.01246 -0.02491,-0.01883 0.039103,-0.04576 0.077046,-0.09037 0.1167277,-0.137003 0.03302,0.02491 0.066619,0.05098 0.1007978,0.07646 0.5752389,0.429547 1.2130423,0.720932 1.916885,0.864596 0.4567737,0.09326 0.9176023,0.116439 1.3821964,0.07299 0.5931976,-0.05533 1.1559822,-0.217235 1.6869055,-0.486318 0.7646685,-0.387547 1.3848032,-0.941064 1.8705412,-1.645775 0.07213,-0.104563 0.138742,-0.213181 0.207098,-0.318612 0.07849,0.0391 0.158437,0.07907 0.243015,0.121362 -0.06286,0.09095 -0.125418,0.186243 -0.192906,0.278062 -0.514414,0.701235 -1.1609058,1.245772 -1.9409257,1.630133 -0.457353,0.225346 -0.938457,0.37915 -1.4418639,0.462568 -0.2401174,0.03968 -0.4816833,0.06459 -0.7252768,0.0698 -0.00753,2.58e-4 -0.014771,0.0038 -0.022302,0.0055 C 6.932856,32.32468 6.8494372,32.32468 6.766019,32.32468 Z"
       id="path124"
       style="stroke-width:0.0289648" />
    <path
       d="m 7.0162736,21.786094 c 0.021144,0.0023 0.042578,0.0058 0.063722,0.0063 0.6598166,0.02318 1.2929854,0.165099 1.8986376,0.42694 0.5752396,0.248808 1.0893628,0.590302 1.5432408,1.022745 0.280379,0.267055 0.528316,0.561047 0.744104,0.882555 0.0069,0.01043 0.01332,0.02115 0.01883,0.02984 -0.073,0.04113 -0.144245,0.08139 -0.218973,0.12339 -0.0041,-0.0061 -0.01072,-0.01622 -0.01709,-0.02664 -0.47618,-0.776834 -1.1073211,-1.392335 -1.9093543,-1.828253 -0.489504,-0.266187 -1.010869,-0.439105 -1.5623573,-0.520207 -0.2320072,-0.03418 -0.4648836,-0.05185 -0.6989184,-0.0504 -0.9390365,0.0061 -1.8018955,0.267055 -2.5885774,0.779441 -0.1094866,0.07125 -0.2149184,0.148879 -0.3246945,0.225635 -0.029834,-0.03678 -0.061405,-0.07588 -0.095583,-0.118176 0.056192,-0.03765 0.1120935,-0.07618 0.1691537,-0.112673 0.6076801,-0.390444 1.2672069,-0.646782 1.979739,-0.765537 0.2389589,-0.03998 0.4793661,-0.06401 0.7218008,-0.06952 0.00869,-2.83e-4 0.017379,-0.0038 0.026069,-0.0055 0.083418,0 0.1668368,0 0.2502551,0 z"
       id="path126"
       style="stroke-width:0.0289648" />
    <path
       d="m 3.9515166,23.81739 c 0.011875,-0.01767 0.020275,-0.03012 0.031572,-0.04721 2.3365841,1.558012 4.6378313,3.163816 6.9060574,4.821177 -0.0099,0.01622 -0.01795,0.02954 -0.02926,0.0475 C 8.5215703,27.081135 6.2209026,25.474461 3.9515166,23.81739 Z"
       id="path128"
       style="stroke-width:0.0289648" />
    <path
       d="m 11.679304,25.797129 c 0.101669,-0.03041 0.199567,-0.05966 0.302392,-0.09037 0.111224,0.421436 0.169443,0.856777 0.173209,1.300516 0.0038,0.444319 -0.04634,0.881686 -0.150906,1.309205 -0.103115,-0.0333 -0.204202,-0.06632 -0.309344,-0.100221 0.174079,-0.80406 0.169444,-1.615072 -0.01535,-2.419133 z"
       id="path130"
       style="stroke-width:0.0289648" />
    <path
       d="m 10.772998,28.848852 c -0.0052,0.02173 -0.009,0.03823 -0.01419,0.05966 C 8.5207045,28.383674 6.2994,27.80409 4.0888124,27.171501 c 0.00579,-0.02201 0.010428,-0.04055 0.01593,-0.06199 2.2369458,0.526289 4.4576706,1.104425 6.6682586,1.739332 z"
       id="path132"
       style="stroke-width:0.0289648" />
    <path
       d="m 4.0630309,30.578336 c -0.00463,-0.02201 -0.00782,-0.03881 -0.012166,-0.05996 2.2242016,-0.493559 4.4570915,-0.931795 6.7047541,-1.314708 0.0046,0.02028 0.0084,0.03765 0.01362,0.05996 -2.2250704,0.494138 -4.4579606,0.931215 -6.7062022,1.314709 z"
       id="path134"
       style="stroke-width:0.0289648" />
    <path
       d="m 4.0789613,23.5457 c 0.00493,-0.02201 0.0084,-0.03765 0.013324,-0.06024 2.2326009,0.378859 4.4541949,0.81246 6.6676787,1.300806 -0.0032,0.0223 -0.0055,0.04026 -0.009,0.06401 C 8.5154901,24.469963 6.293896,24.035202 4.0789636,23.545698 Z"
       id="path136"
       style="stroke-width:0.0289648" />
    <path
       id="path138"
       d="m 11.6344,28.310117 c -0.435919,-2.71e-4 -0.787811,0.351892 -0.788101,0.7881 0,0.432734 0.35221,0.784956 0.786969,0.786404 0.432733,0.0014 0.786955,-0.351897 0.787536,-0.785498 5.79e-4,-0.437078 -0.350195,-0.788717 -0.786404,-0.789006 z m -0.07846,0.171751 c 9.67e-4,-9e-6 0.0019,6.9e-5 0.0029,6.9e-5 0.01556,-1.02e-4 0.03093,5.67e-4 0.04622,0.0017 0.0042,3.09e-4 0.0084,5.03e-4 0.01256,9.03e-4 0.0086,8.12e-4 0.01706,0.0019 0.02551,0.0031 0.0015,2.45e-4 0.0032,3.34e-4 0.0048,5.67e-4 1.42e-4,1.9e-5 2.72e-4,2.9e-5 4e-4,6.8e-5 0.0099,0.0014 0.01974,0.0032 0.02947,0.0051 1.03e-4,2.2e-5 2.46e-4,2.8e-5 3.35e-4,6.8e-5 0.0098,0.0019 0.01938,0.0042 0.02897,0.0066 3.61e-4,1.02e-4 7.22e-4,2.06e-4 10e-4,2.71e-4 0.0287,0.0073 0.05667,0.01685 0.08366,0.02822 1.42e-4,6.8e-5 3.1e-4,1.03e-4 4.52e-4,1.68e-4 0.218728,0.09245 0.375126,0.311151 0.375126,0.562492 2.71e-4,0.339467 -0.273167,0.609744 -0.616689,0.609165 -0.01049,-10e-6 -0.02087,-3.1e-4 -0.03122,-8.51e-4 -0.0102,-5.3e-4 -0.02029,-0.0013 -0.03033,-0.0023 -1.02e-4,-8e-6 -1.41e-4,7e-6 -2.45e-4,0 -0.01,-0.001 -0.01999,-0.0023 -0.02987,-0.0039 -0.01,-0.0015 -0.01984,-0.0034 -0.02964,-0.0054 -0.01959,-0.0041 -0.0388,-0.0091 -0.05764,-0.01505 -0.01884,-0.0059 -0.03728,-0.01281 -0.05527,-0.02053 -1.6e-5,-7e-6 -2.9e-5,6e-6 -6.9e-5,0 -0.009,-0.0039 -0.01785,-0.008 -0.02659,-0.01222 -1.5e-5,-7e-6 -2.8e-5,9e-6 -6.8e-5,0 -0.0088,-0.0043 -0.01735,-0.0088 -0.02585,-0.01346 -1.4e-5,-7e-6 -2.9e-5,8e-6 -6.8e-5,0 -0.0085,-0.0047 -0.01686,-0.0096 -0.02511,-0.01465 -0.03304,-0.02035 -0.06399,-0.04388 -0.09244,-0.07009 -9e-6,-9e-6 -6.8e-5,9e-6 -6.8e-5,0 -0.113826,-0.104891 -0.18763,-0.253409 -0.195794,-0.419593 -5.03e-4,-0.01038 -7.99e-4,-0.02088 -7.99e-4,-0.0314 0,-0.115497 0.03177,-0.223222 0.08717,-0.314991 0.0101,-0.01669 0.02094,-0.03285 0.03253,-0.04842 0.0058,-0.0078 0.01178,-0.01541 0.01793,-0.02291 0.0123,-0.01499 0.02531,-0.02937 0.03898,-0.04311 0.0068,-0.0068 0.01384,-0.01361 0.02099,-0.02014 0.02149,-0.01963 0.04443,-0.03772 0.06862,-0.05413 0.02416,-0.0164 0.04958,-0.03114 0.07609,-0.04402 1.5e-5,-8e-6 2.8e-5,8e-6 6.8e-5,0 0.02655,-0.01288 0.05419,-0.02386 0.08277,-0.03287 0.01905,-0.006 0.03854,-0.01112 0.05838,-0.01527 0.0099,-0.002 0.01993,-0.004 0.03004,-0.0055 0.0101,-0.0016 0.02028,-0.003 0.03055,-0.0041 0.02041,-0.0022 0.04118,-0.0035 0.06217,-0.0036 z"
       style="stroke-width:0.0289648" />
    <path
       id="path140"
       d="M 3.2062317,29.961106 C 2.770023,29.960835 2.4169794,30.3142 2.4178483,30.749828 c 8.69e-4,0.434472 0.3533469,0.786072 0.7878176,0.785783 0.4344709,-2.72e-4 0.7863967,-0.352209 0.7866864,-0.78697 0,-0.434761 -0.3519394,-0.787246 -0.7861206,-0.787535 z m 0.064322,0.137865 c 0.010473,2.8e-5 0.020882,3.1e-4 0.031228,8.52e-4 0.124154,0.0065 0.2387277,0.05009 0.332585,0.119705 2.9e-5,2.9e-5 6.83e-5,1.02e-4 1.023e-4,1.02e-4 0.00777,0.0058 0.015425,0.0117 0.022912,0.01782 2.89e-5,2.8e-5 6.81e-5,1.02e-4 1.023e-4,1.02e-4 0.00749,0.0061 0.014826,0.01237 0.022007,0.01884 2.9e-5,2.9e-5 6.83e-5,1.02e-4 1.025e-4,1.02e-4 0.00718,0.0064 0.01424,0.01313 0.021101,0.01991 2.9e-5,2.9e-5 1.022e-4,1.03e-4 1.022e-4,1.03e-4 0.00686,0.0068 0.013552,0.01371 0.020083,0.02082 2.89e-5,2.9e-5 6.81e-5,1.02e-4 1.022e-4,1.02e-4 0.00653,0.0071 0.012878,0.01437 0.019065,0.02178 2.91e-5,2.9e-5 6.83e-5,6.7e-5 1.024e-4,1.02e-4 0.080883,0.09677 0.1319568,0.218597 0.13894,0.351481 5.415e-4,0.01022 8.381e-4,0.02054 8.509e-4,0.03089 2.9e-5,0.02118 -0.00103,0.0421 -0.00306,0.06274 -1.7e-6,1.9e-5 1.6e-6,2.9e-5 0,6.9e-5 -0.00101,0.0103 -0.00223,0.02052 -0.00373,0.03066 -2.5e-6,1.8e-5 3.1e-6,2.8e-5 0,6.8e-5 -0.00151,0.0101 -0.00327,0.02018 -0.00526,0.03015 -7.2e-6,2.8e-5 7.4e-6,1.02e-4 0,1.02e-4 -0.00199,0.01 -0.00422,0.01987 -0.00667,0.02964 -4.1e-6,1.7e-5 4.8e-6,2.8e-5 0,6.8e-5 -0.00246,0.0098 -0.00518,0.01948 -0.00809,0.02908 -1.09e-5,2.8e-5 1.02e-5,1.02e-4 0,1.02e-4 -0.00291,0.0096 -0.00604,0.01902 -0.00939,0.0284 -0.06387,0.178874 -0.2069579,0.318996 -0.3858193,0.376032 -0.056471,0.01802 -0.1164722,0.02773 -0.1787098,0.02778 -0.064791,6.9e-5 -0.1270157,-0.0093 -0.185329,-0.02676 -0.1944135,-0.05829 -0.3455642,-0.206939 -0.4051666,-0.398434 -0.00297,-0.0095 -0.00575,-0.01917 -0.00826,-0.02891 -9.3e-6,-2.8e-5 9e-6,-1.02e-4 0,-1.02e-4 -0.00251,-0.0098 -0.0048,-0.01957 -0.00684,-0.02953 -3.8e-6,-1.9e-5 3.8e-6,-2.9e-5 0,-6.9e-5 -0.00204,-0.01 -0.00383,-0.02001 -0.00538,-0.03015 -2.5e-6,-1.9e-5 3e-6,-2.9e-5 0,-6.9e-5 -0.00155,-0.0101 -0.00285,-0.02035 -0.00391,-0.03066 -2e-6,-1.8e-5 1.7e-6,-2.9e-5 0,-6.8e-5 -0.00105,-0.01032 -0.00189,-0.02074 -0.00244,-0.03122 -5.415e-4,-0.0105 -7.736e-4,-0.02103 -7.904e-4,-0.03168 -5.788e-4,-0.336859 0.2728204,-0.610881 0.6093906,-0.610012 z"
       style="stroke-width:0.0289648" />
    <path
       id="path142"
       d="m 11.665401,24.151078 c -0.434761,-0.0093 -0.791334,0.326422 -0.807844,0.758287 -0.01622,0.417961 0.302115,0.799134 0.759758,0.815934 0.424913,0.01564 0.784974,-0.305302 0.8122,-0.738035 0.02722,-0.43476 -0.302417,-0.818228 -0.764114,-0.836186 z m -0.06749,0.231434 c 0.277871,2.45e-4 0.513039,0.195519 0.579577,0.457326 9e-6,2.9e-5 -8e-6,1.02e-4 0,1.02e-4 0.0049,0.01936 0.009,0.03909 0.012,0.05911 3e-6,1.9e-5 -3e-6,3e-5 0,6.9e-5 0.0015,0.01 0.0028,0.02009 0.0038,0.03026 2e-6,1.9e-5 -2e-6,2.8e-5 0,6.8e-5 10e-4,0.0102 0.0018,0.02041 0.0023,0.03071 5.17e-4,0.01033 7.48e-4,0.02072 7.36e-4,0.03117 -2.72e-4,0.340914 -0.271705,0.607982 -0.617255,0.607693 -0.06237,-6.9e-5 -0.122442,-0.0098 -0.178936,-0.02772 -0.0094,-0.003 -0.0187,-0.0062 -0.02789,-0.0097 -1.8e-5,-6e-6 -3e-5,6e-6 -6.9e-5,0 -0.0092,-0.0035 -0.01828,-0.0071 -0.02727,-0.01098 -0.009,-0.0039 -0.01787,-0.0081 -0.02664,-0.01233 -0.0088,-0.0043 -0.01735,-0.0089 -0.02585,-0.01358 -1.4e-5,-8e-6 -2.8e-5,8e-6 -6.8e-5,0 -0.0085,-0.0047 -0.01687,-0.0097 -0.02511,-0.01477 -1.3e-5,-9e-6 -2.8e-5,8e-6 -6.8e-5,0 -0.17343,-0.107706 -0.288952,-0.302551 -0.288572,-0.525326 1.9e-5,-0.01052 3.09e-4,-0.02096 8.51e-4,-0.03134 0.0097,-0.186738 0.103975,-0.349267 0.246766,-0.452631 0.0476,-0.03446 0.100567,-0.06229 0.157608,-0.08231 0.01899,-0.0066 0.03849,-0.0125 0.05833,-0.01737 0.0099,-0.0024 0.01997,-0.0047 0.03009,-0.0066 0.0405,-0.0079 0.08252,-0.01195 0.125646,-0.01188 z"
       style="stroke-width:0.0289648" />
    <path
       id="path144"
       d="m 3.2404575,22.529902 c -0.4489532,-5.81e-4 -0.8015012,0.344668 -0.8017908,0.784932 -2.901e-4,0.429257 0.3481625,0.780895 0.7672819,0.789006 0.4321538,0.0082 0.8052579,-0.335131 0.8069955,-0.784085 0.00145,-0.431574 -0.3490223,-0.789564 -0.7724866,-0.789853 z m 0.046332,0.225946 c 0.02109,0 0.041879,0.001 0.062399,0.0031 1.83e-5,2e-6 2.89e-5,-2e-6 6.81e-5,0 0.01024,0.001 0.020412,0.0023 0.030493,0.0039 2.9e-5,5e-6 6.82e-5,-6e-6 1.023e-4,0 0.010058,0.0015 0.020038,0.0034 0.029926,0.0054 2.91e-5,7e-6 6.82e-5,-7e-6 1.024e-4,0 0.00988,0.002 0.019714,0.0043 0.029416,0.0068 2.9e-5,9e-6 6.82e-5,-9e-6 1.024e-4,0 0.0097,0.0024 0.01929,0.0052 0.028795,0.0082 0.2291469,0.07099 0.3991173,0.273234 0.4237223,0.520346 0.00205,0.02059 0.00313,0.04152 0.00311,0.06268 -2.708e-4,0.335991 -0.2775137,0.611729 -0.6117664,0.608543 -0.3383082,-0.0032 -0.6065191,-0.274916 -0.6059398,-0.613803 1.161e-4,-0.07343 0.013228,-0.143676 0.037112,-0.208637 0.00682,-0.01856 0.014542,-0.03666 0.023082,-0.05431 0.072596,-0.150019 0.205387,-0.265193 0.3677725,-0.315048 0.057266,-0.01759 0.1181962,-0.02704 0.1814822,-0.02704 z"
       style="stroke-width:0.0289648" />
    <path
       id="path146"
       d="m 3.2444743,26.171366 c -0.4330227,0 -0.7869626,0.349876 -0.7872521,0.777975 -2.902e-4,0.441422 0.3487599,0.794486 0.7858377,0.794776 0.4362086,5.8e-4 0.7921713,-0.354505 0.7898541,-0.787817 -0.00232,-0.43592 -0.3528107,-0.784934 -0.7884397,-0.784934 z m 0.054082,0.160042 c 0.010311,-2.45e-4 0.020687,-2.06e-4 0.031115,1.03e-4 0.1637562,0.005 0.3082915,0.06842 0.4143311,0.170394 0.00706,0.0068 0.013993,0.01369 0.020705,0.02082 9.1e-6,9e-6 -9.3e-6,6.8e-5 0,6.8e-5 0.00671,0.0071 0.013278,0.01438 0.01963,0.02184 9.1e-6,1.1e-5 -9.1e-6,6.8e-5 0,6.8e-5 0.00635,0.0074 0.012519,0.01504 0.018499,0.0228 8.6e-6,1.3e-5 -9.1e-6,6.9e-5 0,6.9e-5 0.011968,0.01553 0.023244,0.0317 0.03366,0.04842 8.6e-6,1.3e-5 -8.2e-6,2.9e-5 0,6.8e-5 0.0052,0.0084 0.01019,0.01682 0.014992,0.02546 7.8e-6,1.4e-5 -7.9e-6,2.9e-5 0,6.8e-5 0.00479,0.0087 0.00943,0.0174 0.013803,0.02631 7.4e-6,1.5e-5 -7.3e-6,2.9e-5 0,6.8e-5 0.013173,0.02677 0.024455,0.05471 0.03366,0.08368 0.00614,0.01932 0.011354,0.03905 0.015614,0.05923 0.00213,0.0101 0.00401,0.02031 0.00565,0.0306 0.00163,0.0102 0.00305,0.0205 0.00418,0.03089 8.2e-6,1.02e-4 -7.9e-6,1.42e-4 0,2.45e-4 0.00113,0.01039 0.00203,0.02089 0.00266,0.03146 4.4e-6,1.02e-4 -4.5e-6,1.41e-4 0,2.44e-4 6.318e-4,0.01057 0.00102,0.02118 0.00113,0.03191 1.3e-6,1.02e-4 -1.1e-6,1.67e-4 0,2.7e-4 1.022e-4,0.01071 -2.91e-5,0.0215 -4.513e-4,0.03236 -3.8e-6,1.02e-4 3.8e-6,1.67e-4 0,2.71e-4 -3.868e-4,0.0102 -0.00103,0.02031 -0.00193,0.03038 -5.673e-4,0.0063 -0.00139,0.01261 -0.00215,0.01889 -4.513e-4,0.0038 -7.735e-4,0.0077 -0.0013,0.01142 -1.33e-5,1.03e-4 -6.82e-5,2.06e-4 -6.82e-5,2.71e-4 -0.0014,0.0099 -0.00305,0.01976 -0.00492,0.02953 -1.8e-5,1.03e-4 -2.9e-5,2.07e-4 -6.81e-5,2.71e-4 -0.00189,0.0098 -0.00399,0.01942 -0.00633,0.02902 -2.28e-5,1.03e-4 -2.91e-5,2.07e-4 -6.82e-5,2.71e-4 -0.00236,0.0096 -0.00494,0.0191 -0.00775,0.02851 -2.91e-5,1.03e-4 -6.83e-5,1.69e-4 -1.025e-4,2.72e-4 -0.00282,0.0094 -0.00584,0.01873 -0.00911,0.02795 -2.89e-5,1.02e-4 -6.81e-5,1.68e-4 -1.023e-4,2.71e-4 -0.00326,0.0092 -0.00676,0.01832 -0.010467,0.02733 -2.89e-5,1.02e-4 -6.82e-5,2.06e-4 -1.023e-4,2.7e-4 -7.221e-4,0.0017 -0.00153,0.0035 -0.00226,0.0051 -0.0031,0.0073 -0.00623,0.01465 -0.00962,0.02184 -0.00206,0.0044 -0.00434,0.0087 -0.00651,0.01302 -0.00217,0.0043 -0.00423,0.0088 -0.00651,0.01302 -0.00379,0.0071 -0.00781,0.01413 -0.01188,0.0211 -8.509e-4,0.0014 -0.00162,0.003 -0.00249,0.0044 -6.82e-5,1.02e-4 -1.024e-4,2.06e-4 -1.676e-4,2.71e-4 -0.1100277,0.184591 -0.3174283,0.307185 -0.5605691,0.297228 -0.1465118,-0.0061 -0.2835415,-0.0721 -0.3869507,-0.173053 -0.00689,-0.0067 -0.013674,-0.01357 -0.020252,-0.0206 -9.6e-6,-1.1e-5 9.5e-6,-6.9e-5 0,-6.9e-5 -0.013165,-0.01405 -0.02571,-0.02866 -0.037564,-0.04384 -9.5e-6,-1.1e-5 9.1e-6,-6.8e-5 0,-6.8e-5 -0.047438,-0.06074 -0.083934,-0.130038 -0.1057891,-0.204111 -5.2e-6,-1.7e-5 5.3e-6,-2.9e-5 0,-6.8e-5 -0.01639,-0.05557 -0.024541,-0.113806 -0.022911,-0.173166 8.639e-4,-0.03225 0.00405,-0.06387 0.00945,-0.09464 0.0054,-0.03078 0.012997,-0.06071 0.022572,-0.08966 0.00639,-0.0193 0.013661,-0.0382 0.02178,-0.05657 0.016227,-0.03674 0.035795,-0.07146 0.058325,-0.103866 1.51e-5,-2.1e-5 2.9e-5,-2.8e-5 6.84e-5,-6.8e-5 0.011251,-0.01618 0.023252,-0.03179 0.035923,-0.04673 1.71e-5,-2e-5 2.9e-5,-2.9e-5 6.83e-5,-6.7e-5 0.012699,-0.01497 0.02609,-0.0293 0.04011,-0.04293 0.013981,-0.0136 0.028537,-0.02652 0.04373,-0.0387 2.9e-5,-2.6e-5 6.83e-5,-2.9e-5 1.024e-4,-6.8e-5 0.00758,-0.0061 0.01533,-0.01201 0.023194,-0.01771 2.89e-5,-2.4e-5 1.024e-4,-2.8e-5 1.024e-4,-6.8e-5 0.00786,-0.0057 0.015853,-0.01121 0.023987,-0.01651 2.86e-5,-2.3e-5 6.82e-5,-2.9e-5 1.024e-4,-6.8e-5 0.00813,-0.0053 0.016386,-0.01041 0.024778,-0.01533 2.9e-5,-2.1e-5 6.84e-5,-2.9e-5 1.025e-4,-6.8e-5 0.00837,-0.0049 0.0169,-0.0096 0.025514,-0.01409 6.81e-5,-2.8e-5 1.022e-4,-1.02e-4 1.676e-4,-1.02e-4 0.078075,-0.04066 0.165856,-0.06424 0.2586461,-0.06624 z"
       style="stroke-width:0.0289648" />
    <path
       d="m 3.9367445,30.256827 c -0.010717,-0.01535 -0.019117,-0.02723 -0.029544,-0.04258 0.011297,-0.0087 0.021723,-0.0168 0.032731,-0.02491 1.0036276,-0.728173 2.0176826,-1.441284 3.0381098,-2.145707 0.012745,-0.009 0.034468,-0.01217 0.049819,-0.0087 0.04924,0.01072 0.097901,0.02607 0.1546716,0.042 -1.0771979,0.740338 -2.1541063,1.466774 -3.2457867,2.179885 z"
       id="path148"
       style="stroke-width:0.0289648" />
    <path
       d="m 10.758226,25.099658 c 0.0046,0.02085 0.0087,0.03736 0.01332,0.05821 -0.06546,0.01795 -0.129471,0.03678 -0.194063,0.0533 -0.7131114,0.184795 -1.425933,0.370459 -2.1393343,0.553516 -0.3125293,0.08024 -0.626217,0.154961 -0.9393259,0.232877 -0.021434,0.0052 -0.038812,0.0044 -0.05764,-0.0099 -0.041419,-0.03129 -0.084867,-0.05967 -0.1349754,-0.09443 1.152506,-0.27922 2.2986401,-0.547723 3.4520146,-0.793634 z"
       id="path150"
       style="stroke-width:0.0289648" />
    <path
       d="m 7.0009223,26.121823 c -0.9633667,0.220132 -1.9267333,0.440264 -2.8929964,0.660975 -0.00608,-0.02664 -0.010427,-0.04519 -0.015351,-0.0672 0.086315,-0.02346 0.1706024,-0.0475 0.2554691,-0.06922 0.8231771,-0.211152 1.6463547,-0.422016 2.4695321,-0.633748 0.02491,-0.0063 0.043158,-0.0032 0.063433,0.01245 0.039102,0.02984 0.080522,0.05706 0.1207827,0.08545 -2.707e-4,0.0038 -5.802e-4,0.0075 -8.638e-4,0.01129 z"
       id="path152"
       style="stroke-width:0.0289648" />
    <path
       d="m 10.879299,25.406105 c 0.0139,0.0197 0.0223,0.03186 0.03244,0.04634 -0.06893,0.05011 -0.135555,0.09964 -0.203332,0.14772 -0.619845,0.440842 -1.2399802,0.880816 -1.8592458,1.322529 -0.030992,0.02201 -0.052426,0.02346 -0.079943,-0.0011 -0.021434,-0.01912 -0.046634,-0.03418 -0.078784,-0.05706 0.7313591,-0.486898 1.4586638,-0.971477 2.1888648,-1.458374 z"
       id="path154"
       style="stroke-width:0.0289648" />
    <path
       d="m 7.2598672,27.846962 c 0.099929,-0.06865 0.1923256,-0.132079 0.2847232,-0.195223 0.2719785,-0.186242 0.5442468,-0.372196 0.8159361,-0.559018 0.019406,-0.01332 0.033888,-0.01709 0.054164,-8.64e-4 0.028964,0.02288 0.060536,0.04258 0.094136,0.06546 -0.00782,0.0066 -0.013903,0.01304 -0.020855,0.01767 -0.3362804,0.233456 -0.6731401,0.466622 -1.0091308,0.700368 -0.018827,0.01304 -0.035627,0.01593 -0.05764,0.0099 -0.050109,-0.0139 -0.1010875,-0.02433 -0.1613333,-0.03823 z"
       id="path156"
       style="stroke-width:0.0289648" />
  </g>
</svg>
