<svg xmlns="http://www.w3.org/2000/svg" xml:space="preserve" id="Warstwa_1" x="0" y="0" class="logo" version="1.1" viewBox="0 0 373.35 363.9"><style id="style79" type="text/css"></style><g id="g387" style="display:inline"><g id="g874" transform="translate(-773.3 -248.8)"><g id="outer_circle"><path id="path341" d="M773.4 424.5c.1-1.9.3-3.8.4-5.7 1.5-23.5 7.4-45.8 17.6-67 4.8-9.9 10.4-19.3 16.9-28.2.2-.3.5-.6.7-.9 2.2 1.7 4.3 3.3 6.5 5-20.2 30.8-30.4 64.8-30.6 101.8-.2 36.9 9.8 71.1 29.8 102.2-1.3.9-2.5 1.7-3.7 2.6-1.1.9-2.2 1.9-3.4 2.9-.2-.3-.5-.6-.7-1-14.6-20.5-24.5-43.1-29.7-67.8-2.1-10-3.4-20.2-3.7-30.4 0-.3-.1-.6-.2-.9.1-4.3.1-8.4.1-12.6z"/><path id="path343" d="M951 612.7c-.8-.1-1.6-.2-2.3-.2-20.4-.7-40.2-4.8-59.2-12.2-14-5.4-27.2-12.5-39.5-21.3-.3-.2-.6-.4-.9-.7 1.4-1.6 2.7-3.1 4-4.7 1.1.9 2.3 1.8 3.5 2.6 19.9 14.8 41.9 24.9 66.2 29.8 15.8 3.2 31.7 4 47.7 2.5 20.5-1.9 39.9-7.5 58.2-16.8 26.4-13.4 47.8-32.5 64.6-56.8 2.5-3.6 4.8-7.4 7.2-11 2.7 1.3 5.5 2.7 8.4 4.2-2.2 3.1-4.3 6.4-6.7 9.6-17.8 24.2-40.1 43-67 56.3-15.8 7.8-32.4 13.1-49.8 16-8.3 1.4-16.6 2.2-25 2.4-.3 0-.5.1-.8.2-2.8.1-5.7.1-8.6.1z"/><path id="path345" d="M959.6 248.8c.7.1 1.5.2 2.2.2 22.8.8 44.6 5.7 65.5 14.7 19.9 8.6 37.6 20.4 53.3 35.3 9.7 9.2 18.2 19.4 25.7 30.5.2.4.5.7.7 1-2.5 1.4-5 2.8-7.6 4.3-.1-.2-.4-.6-.6-.9-16.4-26.8-38.2-48.1-65.9-63.1-16.9-9.2-34.9-15.2-53.9-18-8-1.2-16-1.8-24.1-1.7-32.4.2-62.2 9.2-89.4 26.9-3.8 2.5-7.4 5.1-11.2 7.8-1-1.3-2.1-2.6-3.3-4.1 1.9-1.3 3.9-2.6 5.8-3.9 21-13.5 43.8-22.3 68.4-26.4 8.2-1.4 16.5-2.2 24.9-2.4.3 0 .6-.1.9-.2h8.6z"/><path id="path349" d="M1120.6 387.3c3.5-1 6.9-2.1 10.4-3.1 3.8 14.5 5.8 29.6 6 44.9.1 15.3-1.6 30.4-5.2 45.2-3.6-1.2-7-2.3-10.7-3.5 6.1-27.7 5.9-55.7-.5-83.5z"/></g><path id="edge_1_4" d="M853.8 319c.4-.6.7-1 1.1-1.6 80.7 53.8 160.1 109.2 238.4 166.4-.3.6-.6 1-1 1.6-80.7-53.7-160.1-109.2-238.5-166.4Z"/><path id="egde_3_4" d="M1089.3 492.7c-.2.8-.3 1.3-.5 2.1-77.3-18.1-154-38.1-230.3-60 .2-.8.4-1.4.5-2.1 77.4 18.1 154 38.1 230.3 60z"/><path id="edge_4_5" d="M857.7 552.4c-.2-.8-.3-1.3-.4-2.1 76.8-17 153.9-32.2 231.5-45.4.2.7.3 1.3.5 2.1-76.9 17.1-154 32.2-231.6 45.4z"/><path id="edge_1_2" d="M858.2 309.6c.2-.8.3-1.3.5-2.1 77.1 13.1 153.8 28 230.2 44.9-.1.8-.2 1.4-.3 2.2-77.2-13.1-153.9-28.1-230.4-45z"/><path id="node_4" d="M1119.1 474.1c15.1 0 27.2 12.2 27.2 27.2s-12.2 27.2-27.2 27.1c-15 0-27.2-12.2-27.2-27.2s12.1-27.1 27.2-27.1zm-23.7 26.9c0 11.6 9.3 21 20.7 21 11.9 0 21.3-9.3 21.3-21 0-11.6-9.6-21.2-21.1-21-11.6.1-20.9 9.4-20.9 21z"/><path id="node_5" d="M828.1 585.4c-15 0-27.2-12.1-27.2-27.1 0-15 12.2-27.2 27.2-27.2s27.1 12.2 27.1 27.2-12.1 27.1-27.1 27.1zm-18.8-28.5c0 11.8 9.4 21 21.3 21 11.5 0 20.8-9.5 20.7-21.2 0-11.4-9.5-20.8-21-20.8-11.6-.1-21 9.4-21 21z"/><path id="node_2" d="M1120.2 330.5c15.9.6 27.3 13.9 26.4 28.9-.9 14.9-13.4 26-28 25.5-15.8-.6-26.8-13.7-26.2-28.2.4-14.9 12.7-26.5 27.8-26.2zm18.3 29c0-11.5-9.3-21-20.7-21-11.9 0-21.4 9.2-21.4 20.8 0 11.7 9.2 21.2 20.7 21.2 12 0 21.4-9.2 21.4-21z"/><path id="node_1" d="M801.6 301.6c0-15.2 12.2-27.1 27.7-27.1 14.6 0 26.7 12.4 26.7 27.3-.1 15.5-12.9 27.4-27.9 27.1-14.5-.3-26.5-12.5-26.5-27.3zm29.3-19.3c-11.6 0-21 9.3-21 20.9 0 11.7 9.2 21.1 20.9 21.2 11.5.1 21.1-9.4 21.1-21 0-11.7-9.4-21.1-21-21.1z"/><path id="node_3" d="M829.4 400.2c15 0 27.1 12.1 27.2 27.1.1 15-12.2 27.2-27.3 27.2-15.1 0-27.1-12.2-27.1-27.4.1-14.8 12.3-26.9 27.2-26.9zM811 426.6c-.3 10.9 9 20.8 19.8 21.2 12.2.5 21.8-8.7 22.2-20 .5-12.1-8.6-21.6-20.6-22-11.6-.4-21.1 8.9-21.4 20.8z"/><g id="edge_2_3"><path id="path369" d="M1088.8 363.2c.2.7.3 1.3.5 2-2.3.6-4.5 1.3-6.7 1.8-24.6 6.4-49.2 12.8-73.9 19.1-10.8 2.8-21.6 5.4-32.4 8-.7.2-1.3.1-2-.3-1.4-1.1-2.9-2.1-4.7-3.3 39.8-9.5 79.4-18.8 119.2-27.3z"/><path id="path371" d="M959.1 398.5c-33.3 7.6-66.5 15.2-99.9 22.8-.2-.9-.4-1.6-.5-2.3 3-.8 5.9-1.6 8.8-2.4 28.4-7.3 56.8-14.6 85.3-21.9.9-.2 1.5-.1 2.2.4l4.2 3c-.1.2-.1.3-.1.4z"/></g><g id="edge_2_5"><path id="path367" d="M853.3 541.3c-.4-.5-.7-.9-1-1.5.4-.3.8-.6 1.1-.9 34.6-25.1 69.7-49.8 104.9-74.1.4-.3 1.2-.4 1.7-.3 1.7.4 3.4.9 5.3 1.5-37.1 25.6-74.3 50.7-112 75.3z"/><path id="path373" d="M1093 373.8c.5.7.8 1.1 1.1 1.6-2.4 1.7-4.7 3.4-7 5.1-21.4 15.2-42.8 30.4-64.2 45.7-1.1.8-1.8.8-2.8 0-.7-.7-1.6-1.2-2.7-2 25.3-16.8 50.4-33.6 75.6-50.4z"/><path id="path375" d="M968.1 458.1c3.5-2.4 6.6-4.6 9.8-6.7 9.4-6.4 18.8-12.8 28.2-19.3.7-.5 1.2-.6 1.9 0 1 .8 2.1 1.5 3.2 2.3-.3.2-.5.5-.7.6-11.6 8.1-23.2 16.1-34.8 24.2-.7.5-1.2.5-2 .3-1.8-.6-3.6-.9-5.6-1.4z"/></g></g></g></svg>